<?xml version="1.0" encoding="utf-8"?>
<!-- Generator: Adobe Illustrator 26.0.3, SVG Export Plug-In . SVG Version: 6.00 Build 0)  -->
<svg version="1.1" id="图层_1" xmlns="http://www.w3.org/2000/svg" xmlns:xlink="http://www.w3.org/1999/xlink" x="0px" y="0px"
	 viewBox="0 0 128 128" style="enable-background:new 0 0 128 128;" xml:space="preserve">
<style type="text/css">
	.st0{clip-path:url(#SVGID_00000170956908496108552500000014389511365984252583_);}
	.st1{fill-rule:evenodd;clip-rule:evenodd;fill:#555555;}
</style>
<desc>Created with Pixso.</desc>
<g>
	<defs>
		<rect id="SVGID_1_" y="0" width="128" height="128"/>
	</defs>
	<clipPath id="SVGID_00000183212345902730610310000017224716200801766296_">
		<use xlink:href="#SVGID_1_"  style="overflow:visible;"/>
	</clipPath>
	<g style="clip-path:url(#SVGID_00000183212345902730610310000017224716200801766296_);">
		<g>
			<path class="st1" d="M30.6,34.3c-1.9,2.1-1.7,5.2,0.4,7.1v0l58.9,53c2.1,1.9,5.2,1.7,7.1-0.4c1.9-2.1,1.7-5.2-0.4-7.1l0,0
				l-58.9-53l0,0C35.6,32,32.5,32.2,30.6,34.3z"/>
		</g>
		<g>
			<path class="st1" d="M29.8,39.7c1.2,2.5,4.1,3.6,6.6,2.4v0l58.9-27.5c2.5-1.2,3.6-4.1,2.4-6.6c-1.2-2.5-4.1-3.6-6.6-2.4
				L32.2,33.1l0,0C29.7,34.3,28.6,37.2,29.8,39.7z"/>
		</g>
		<g>
			<path class="st1" d="M29.8,78.6c1.2,2.5,4.1,3.6,6.6,2.4l0,0l58.9-27.5c2.5-1.2,3.6-4.1,2.4-6.6s-4.1-3.6-6.6-2.4L32.2,72l0,0
				C29.7,73.2,28.6,76.1,29.8,78.6z"/>
		</g>
		<g>
			<path class="st1" d="M29.8,120.2c1.2,2.5,4.1,3.6,6.6,2.4l0,0l58.9-27.5c2.5-1.2,3.6-4.1,2.4-6.6c-1.2-2.5-4.1-3.6-6.6-2.4l0,0
				l-58.9,27.5l0,0C29.7,114.7,28.6,117.7,29.8,120.2z"/>
		</g>
		<g>
			<path class="st1" d="M93.7,4.9c-2.8,0-5,2.2-5,5l0,0v22c0,2.8,2.2,5,5,5c2.8,0,5-2.2,5-5v-22h0C98.7,7.1,96.5,4.9,93.7,4.9z"/>
		</g>
		<g>
			<path class="st1" d="M34.3,91.1c-2.8,0-5,2.2-5,5l0,0v22c0,2.8,2.2,5,5,5c2.8,0,5-2.2,5-5v-22l0,0C39.3,93.3,37.1,91.1,34.3,91.1
				z"/>
		</g>
	</g>
</g>
</svg>
